<?xml version="1.0" encoding="UTF-8" standalone="no"?>
<!-- Created with Inkscape (http://www.inkscape.org/) -->

<svg
   width="103.891mm"
   height="88.817856mm"
   viewBox="0 0 103.891 88.817856"
   version="1.1"
   id="svg1"
   xmlns="http://www.w3.org/2000/svg"
   xmlns:svg="http://www.w3.org/2000/svg"
   xmlns:rdf="http://www.w3.org/1999/02/22-rdf-syntax-ns#"
   xmlns:cc="http://creativecommons.org/ns#"
   xmlns:dc="http://purl.org/dc/elements/1.1/">
  <title
     id="title4">Panicking Ferris the Crab</title>
  <defs
     id="defs1" />
  <g
     id="layer1"
     transform="translate(-47.633374,-63.192301)">
    <path
       style="fill:#861c09;fill-opacity:1;stroke:none;stroke-width:2;stroke-linecap:square;stroke-linejoin:round;stroke-dasharray:none;paint-order:markers fill stroke"
       id="path1-1"
       d="m 77.606817,132.31746 c -1.534439,1.12732 -7.163247,-2.14995 -8.824516,-1.22821 -1.66127,0.92175 -1.848491,7.73844 -3.639776,8.35839 -1.791285,0.61994 -6.298764,-4.43958 -8.172761,-4.08158 -1.873998,0.358 -4.590545,6.50218 -6.479555,6.60124 -1.88901,0.0991 -4.865051,-5.12751 -6.752632,-5.33573 -1.887581,-0.20823 -6.228421,4.35168 -8.060279,3.87089 -1.831858,-0.48079 -2.035871,-6.72875 -3.774065,-7.48065 -1.738194,-0.7519 -7.549931,2.90016 -9.168196,1.91784 -1.618264,-0.98232 -0.461293,-7.56953 -1.91659,-8.77806 -1.455297,-1.20853 -8.459066,1.17772 -9.730037,-0.24407 -1.2709706,-1.42179 1.983812,-8.10599 0.946751,-9.68909 -1.037062,-1.5831 -7.5152339,-1.61709 -8.2947227,-3.35714 -0.7794886,-1.74004 3.8685471,-5.9252 3.3371978,-7.74803 -0.5313494,-1.82284 -7.29657502,-3.93052 -7.52771416,-5.817928 C -0.68121712,97.417922 5.5021686,94.181777 5.5519789,92.290997 5.6017892,90.400216 -0.33001983,86.190763 0.01184378,84.325199 0.35370727,82.459636 6.9638729,81.04643 7.5762246,79.253597 8.1885764,77.460764 4.2301277,72.421259 5.0862645,70.72337 c 0.8561366,-1.697889 7.2582045,-0.780558 8.3702215,-2.329095 1.112018,-1.548537 -1.707185,-7.670978 -0.362842,-9.023186 1.344343,-1.352208 7.618975,0.228322 9.128194,-0.922737 1.50922,-1.15106 1.594384,-7.194323 3.250484,-8.110601 1.6561,-0.916278 6.300168,2.988014 8.098829,2.366952 1.798662,-0.621063 3.120698,-6.79174 4.988187,-7.174886 1.867489,-0.383146 5.596461,5.168505 7.497549,5.072546 1.901088,-0.09596 5.768107,-6.058908 7.66197,-5.850436 1.893863,0.208472 3.861255,6.552905 5.706446,7.020409 1.845191,0.467504 6.436901,-4.737903 8.177599,-3.972212 1.740696,0.765692 1.603584,7.981365 3.234197,8.958584 1.630614,0.97722 7.503271,-2.504254 8.953135,-1.267389 1.449864,1.236865 -0.456584,8.19412 0.78759,9.620723 1.244175,1.426604 7.977313,-0.135346 9.017082,1.45391 1.039769,1.589255 -2.277154,7.866241 -1.485932,9.587492 0.791222,1.721251 6.589979,2.460501 7.102346,4.292844 0.512367,1.832343 -4.192476,5.435396 -3.985745,7.316176 0.20673,1.88078 6.64282,4.981763 6.573243,6.887233 -0.06958,1.90547 -6.701557,4.84208 -7.017023,6.720663 -0.315467,1.87858 4.943261,6.08025 4.355346,7.88573 -0.587916,1.80548 -7.912891,2.61142 -8.776344,4.30155 -0.863454,1.69014 2.471332,6.74307 1.351315,8.27115 -1.120017,1.52809 -7.577487,0.31108 -8.911999,1.67026 -1.334513,1.35919 0.341143,7.69109 -1.193296,8.81841 z"
       transform="matrix(1,0,0,0.83075834,53.724996,26.0187)" />
    <path
       style="fill:#861c09;fill-opacity:1;stroke:none;stroke-width:0.718847;stroke-linecap:square;stroke-linejoin:round;stroke-dasharray:none;stroke-opacity:1;paint-order:markers fill stroke"
       d="m 70.353723,113.02947 c 0.766878,11.9785 6.656259,33.85069 2.300636,35.93549 0,0 -26.538842,-29.30416 -2.300636,-35.93549 z"
       id="path4-8" />
    <path
       style="fill:#861c09;fill-opacity:1;stroke:none;stroke-width:0.718847;stroke-linecap:square;stroke-linejoin:round;stroke-dasharray:none;stroke-opacity:1;paint-order:markers fill stroke"
       d="m 140.38229,109.38373 c -0.76688,11.9785 -6.65626,33.85069 -2.30064,35.93549 0,0 26.53884,-29.30416 2.30064,-35.93549 z"
       id="path4-0-7" />
    <path
       style="fill:#e43717;fill-opacity:1;stroke:none;stroke-width:2;stroke-linecap:square;stroke-linejoin:round;stroke-dasharray:none;paint-order:markers fill stroke"
       id="path1"
       d="m 77.606817,132.31746 c -1.534439,1.12732 -7.163247,-2.14995 -8.824516,-1.22821 -1.66127,0.92175 -1.848491,7.73844 -3.639776,8.35839 -1.791285,0.61994 -6.298764,-4.43958 -8.172761,-4.08158 -1.873998,0.358 -4.590545,6.50218 -6.479555,6.60124 -1.88901,0.0991 -4.865051,-5.12751 -6.752632,-5.33573 -1.887581,-0.20823 -6.228421,4.35168 -8.060279,3.87089 -1.831858,-0.48079 -2.035871,-6.72875 -3.774065,-7.48065 -1.738194,-0.7519 -7.549931,2.90016 -9.168196,1.91784 -1.618264,-0.98232 -0.461293,-7.56953 -1.91659,-8.77806 -1.455297,-1.20853 -8.459066,1.17772 -9.730037,-0.24407 -1.2709706,-1.42179 1.983812,-8.10599 0.946751,-9.68909 -1.037062,-1.5831 -7.5152339,-1.61709 -8.2947227,-3.35714 -0.7794886,-1.74004 3.8685471,-5.9252 3.3371978,-7.74803 -0.5313494,-1.82284 -7.29657502,-3.93052 -7.52771416,-5.817928 C -0.68121712,97.417922 5.5021686,94.181777 5.5519789,92.290997 5.6017892,90.400216 -0.33001983,86.190763 0.01184378,84.325199 0.35370727,82.459636 6.9638729,81.04643 7.5762246,79.253597 8.1885764,77.460764 4.2301277,72.421259 5.0862645,70.72337 c 0.8561366,-1.697889 7.2582045,-0.780558 8.3702215,-2.329095 1.112018,-1.548537 -1.707185,-7.670978 -0.362842,-9.023186 1.344343,-1.352208 7.618975,0.228322 9.128194,-0.922737 1.50922,-1.15106 1.594384,-7.194323 3.250484,-8.110601 1.6561,-0.916278 6.300168,2.988014 8.098829,2.366952 1.798662,-0.621063 3.120698,-6.79174 4.988187,-7.174886 1.867489,-0.383146 5.596461,5.168505 7.497549,5.072546 1.901088,-0.09596 5.768107,-6.058908 7.66197,-5.850436 1.893863,0.208472 3.861255,6.552905 5.706446,7.020409 1.845191,0.467504 6.436901,-4.737903 8.177599,-3.972212 1.740696,0.765692 1.603584,7.981365 3.234197,8.958584 1.630614,0.97722 7.503271,-2.504254 8.953135,-1.267389 1.449864,1.236865 -0.456584,8.19412 0.78759,9.620723 1.244175,1.426604 7.977313,-0.135346 9.017082,1.45391 1.039769,1.589255 -2.277154,7.866241 -1.485932,9.587492 0.791222,1.721251 6.589979,2.460501 7.102346,4.292844 0.512367,1.832343 -4.192476,5.435396 -3.985745,7.316176 0.20673,1.88078 6.64282,4.981763 6.573243,6.887233 -0.06958,1.90547 -6.701557,4.84208 -7.017023,6.720663 -0.315467,1.87858 4.943261,6.08025 4.355346,7.88573 -0.587916,1.80548 -7.912891,2.61142 -8.776344,4.30155 -0.863454,1.69014 2.471332,6.74307 1.351315,8.27115 -1.120017,1.52809 -7.577487,0.31108 -8.911999,1.67026 -1.334513,1.35919 0.341143,7.69109 -1.193296,8.81841 z"
       transform="matrix(1,0,0,0.83075834,48.089772,28.535466)" />
    <ellipse
       style="fill:#000000;fill-opacity:1;stroke:none;stroke-width:0;stroke-linecap:square;stroke-linejoin:round;stroke-dasharray:none;paint-order:markers fill stroke"
       id="path2"
       cx="79.39492"
       cy="99.564087"
       rx="8.7248716"
       ry="10.338244" />
    <ellipse
       style="fill:#000000;fill-opacity:1;stroke:none;stroke-width:0;stroke-linecap:square;stroke-linejoin:round;stroke-dasharray:none;paint-order:markers fill stroke"
       id="path2-0"
       cx="58.155457"
       cy="144.98705"
       rx="6.6515098"
       ry="9.7834702"
       transform="matrix(0.95689106,-0.29044706,0.26681081,0.96374892,0,0)" />
    <ellipse
       style="fill:#ffffff;fill-opacity:1;stroke:none;stroke-width:0;stroke-linecap:square;stroke-linejoin:round;stroke-dasharray:none;paint-order:markers fill stroke"
       id="path3"
       ry="5.0426488"
       rx="3.1175165"
       cy="96.004356"
       cx="75.618858" />
    <ellipse
       style="fill:#000000;fill-opacity:1;stroke:none;stroke-width:0;stroke-linecap:square;stroke-linejoin:round;stroke-dasharray:none;paint-order:markers fill stroke"
       id="path2-2"
       cx="109.02549"
       cy="99.228348"
       rx="8.7248716"
       ry="10.338244" />
    <ellipse
       style="fill:#ffffff;fill-opacity:1;stroke:none;stroke-width:0;stroke-linecap:square;stroke-linejoin:round;stroke-dasharray:none;paint-order:markers fill stroke"
       id="path3-9"
       ry="5.0426488"
       rx="3.1175165"
       cy="95.668625"
       cx="105.24941" />
    <path
       style="fill:#e43717;fill-opacity:1;stroke:none;stroke-width:0.718847;stroke-linecap:square;stroke-linejoin:round;stroke-dasharray:none;stroke-opacity:1;paint-order:markers fill stroke"
       d="m 59.826555,116.07466 c 0.766878,11.9785 6.656259,33.85069 2.300636,35.93549 0,0 -26.538842,-29.30416 -2.300636,-35.93549 z"
       id="path4" />
    <path
       style="fill:#e43717;fill-opacity:1;stroke:none;stroke-width:0.718847;stroke-linecap:square;stroke-linejoin:round;stroke-dasharray:none;stroke-opacity:1;paint-order:markers fill stroke"
       d="m 134.43133,112.94931 c -0.76688,11.9785 -6.65626,33.85069 -2.30064,35.93549 0,0 26.53884,-29.30416 2.30064,-35.93549 z"
       id="path4-0" />
  </g>
  <metadata
     id="metadata4">
    <rdf:RDF>
      <cc:Work
         rdf:about="">
        <dc:title>Panicking Ferris the Crab</dc:title>
        <dc:creator>
          <cc:Agent>
            <dc:title>Peter Todorov</dc:title>
          </cc:Agent>
        </dc:creator>
        <dc:rights>
          <cc:Agent>
            <dc:title>CC BY 4.0</dc:title>
          </cc:Agent>
        </dc:rights>
        <cc:license
           rdf:resource="http://creativecommons.org/licenses/by/4.0/" />
      </cc:Work>
      <cc:License
         rdf:about="http://creativecommons.org/licenses/by/4.0/">
        <cc:permits
           rdf:resource="http://creativecommons.org/ns#Reproduction" />
        <cc:permits
           rdf:resource="http://creativecommons.org/ns#Distribution" />
        <cc:requires
           rdf:resource="http://creativecommons.org/ns#Notice" />
        <cc:requires
           rdf:resource="http://creativecommons.org/ns#Attribution" />
        <cc:permits
           rdf:resource="http://creativecommons.org/ns#DerivativeWorks" />
      </cc:License>
    </rdf:RDF>
  </metadata>
</svg>
